<svg width="128" height="100" viewBox="0 0 128 100" fill="none" xmlns="http://www.w3.org/2000/svg">
<g opacity="0.4">
<path d="M92.7889 39.2904C88.9715 39.2904 85.2971 39.7669 81.8547 40.6447C78.1728 31.26 66.9951 24.4359 53.7765 24.4359C37.5591 24.4359 24.4125 34.7067 24.4125 47.3765C24.4125 49.2071 24.6886 50.9873 25.2071 52.6939C11.3673 53.4561 0.442383 62.4678 0.442383 73.4743C0.442383 84.9804 12.3815 94.308 27.1096 94.308H92.7889C112.235 94.3078 128 81.9918 128 66.7992C128 51.6067 112.235 39.2904 92.7889 39.2904Z" fill="url(#paint0_linear_1422_197)"/>
<path d="M57.5766 66.8004C57.5766 67.9162 57.6625 69.0159 57.8286 70.0968C56.5042 70.2427 55.1499 70.3168 53.775 70.3168C37.5577 70.3168 24.4131 60.0453 24.4131 47.3755C24.4131 34.708 37.5577 24.4364 53.775 24.4364C66.9937 24.4364 78.1736 31.2609 81.854 40.6458C67.7612 44.2364 57.5766 54.589 57.5766 66.8004Z" fill="url(#paint1_linear_1422_197)"/>
<path d="M0.647614 76.0675C2.28175 86.3496 13.5056 94.3079 27.1092 94.3079H92.7885C108.072 94.3079 121.079 86.6998 125.949 76.0675H0.647614Z" fill="url(#paint2_linear_1422_197)"/>
<path d="M47.2074 78.7031C59.1635 78.7031 68.8557 71.1311 68.8557 61.7904C68.8557 52.4497 59.1635 44.8777 47.2074 44.8777C35.2514 44.8777 25.5591 52.4497 25.5591 61.7904C25.5591 71.1311 35.2514 78.7031 47.2074 78.7031Z" fill="url(#paint3_linear_1422_197)"/>
</g>
<defs>
<linearGradient id="paint0_linear_1422_197" x1="27.6472" y1="40.1808" x2="80.0144" y2="107.211" gradientUnits="userSpaceOnUse">
<stop stop-color="#C7E9FF"/>
<stop offset="1" stop-color="#7ACBFF"/>
</linearGradient>
<linearGradient id="paint1_linear_1422_197" x1="54.2928" y1="47.2696" x2="97.6414" y2="35.9872" gradientUnits="userSpaceOnUse">
<stop stop-color="#7ACBFF" stop-opacity="0"/>
<stop offset="1" stop-color="#2F73A0"/>
</linearGradient>
<linearGradient id="paint2_linear_1422_197" x1="63.2983" y1="85.7808" x2="63.2983" y2="99.2075" gradientUnits="userSpaceOnUse">
<stop stop-color="#7ACBFF" stop-opacity="0"/>
<stop offset="1" stop-color="#2F73A0"/>
</linearGradient>
<linearGradient id="paint3_linear_1422_197" x1="29.7884" y1="48.0524" x2="41.035" y2="62.5851" gradientUnits="userSpaceOnUse">
<stop stop-color="#EDF5FF"/>
<stop offset="1" stop-color="#C7E9FF" stop-opacity="0"/>
</linearGradient>
</defs>
</svg>
