<svg width="132" height="102" viewBox="0 0 132 102" fill="none" xmlns="http://www.w3.org/2000/svg">
<g opacity="0.2" filter="url(#filter0_f_1422_192)">
<path d="M94.7889 40.0762C90.9715 40.0762 87.2971 40.5622 83.8547 41.4576C80.1728 31.8852 68.9951 24.9246 55.7765 24.9246C39.5591 24.9246 26.4125 35.4008 26.4125 48.324C26.4125 50.1912 26.6886 52.007 27.2071 53.7478C13.3673 54.5252 2.44238 63.7172 2.44238 74.9438C2.44238 86.68 14.3815 96.1942 29.1096 96.1942H94.7889C114.235 96.194 130 83.6316 130 68.1352C130 52.6388 114.235 40.0762 94.7889 40.0762Z" fill="url(#paint0_linear_1422_192)"/>
<path d="M59.5766 68.1364C59.5766 69.2746 59.6625 70.3962 59.8286 71.4988C58.5042 71.6476 57.1499 71.7232 55.775 71.7232C39.5577 71.7232 26.4131 61.2462 26.4131 48.323C26.4131 35.4022 39.5577 24.9252 55.775 24.9252C68.9937 24.9252 80.1736 31.8862 83.854 41.4588C69.7612 45.1212 59.5766 55.6808 59.5766 68.1364Z" fill="url(#paint1_linear_1422_192)"/>
<path d="M2.64762 77.5888C4.28176 88.0766 15.5056 96.194 29.1092 96.194H94.7886C110.072 96.194 123.079 88.4338 127.949 77.5888H2.64762Z" fill="url(#paint2_linear_1422_192)"/>
<path d="M49.2074 80.2772C61.1634 80.2772 70.8557 72.5537 70.8557 63.0262C70.8557 53.4987 61.1634 45.7752 49.2074 45.7752C37.2514 45.7752 27.5591 53.4987 27.5591 63.0262C27.5591 72.5537 37.2514 80.2772 49.2074 80.2772Z" fill="url(#paint3_linear_1422_192)"/>
</g>
<defs>
<filter id="filter0_f_1422_192" x="0" y="-2" width="132" height="106" filterUnits="userSpaceOnUse" color-interpolation-filters="sRGB">
<feFlood flood-opacity="0" result="BackgroundImageFix"/>
<feBlend mode="normal" in="SourceGraphic" in2="BackgroundImageFix" result="shape"/>
<feGaussianBlur stdDeviation="1" result="effect1_foregroundBlur_1422_192"/>
</filter>
<linearGradient id="paint0_linear_1422_192" x1="29.6472" y1="40.9844" x2="83.3084" y2="108.324" gradientUnits="userSpaceOnUse">
<stop stop-color="#C7E9FF"/>
<stop offset="1" stop-color="#7ACBFF"/>
</linearGradient>
<linearGradient id="paint1_linear_1422_192" x1="56.2928" y1="48.215" x2="99.7485" y2="37.1265" gradientUnits="userSpaceOnUse">
<stop stop-color="#7ACBFF" stop-opacity="0"/>
<stop offset="1" stop-color="#2F73A0"/>
</linearGradient>
<linearGradient id="paint2_linear_1422_192" x1="65.2984" y1="87.4964" x2="65.2984" y2="101.192" gradientUnits="userSpaceOnUse">
<stop stop-color="#7ACBFF" stop-opacity="0"/>
<stop offset="1" stop-color="#2F73A0"/>
</linearGradient>
<linearGradient id="paint3_linear_1422_192" x1="31.7884" y1="49.0134" x2="43.315" y2="63.6158" gradientUnits="userSpaceOnUse">
<stop stop-color="#EDF5FF"/>
<stop offset="1" stop-color="#C7E9FF" stop-opacity="0"/>
</linearGradient>
</defs>
</svg>
